<?xml version="1.0" encoding="utf-8"?>
<!-- Generator: Adobe Illustrator 23.0.0, SVG Export Plug-In . SVG Version: 6.00 Build 0)  -->
<svg version="1.1" id="Calque_1" xmlns="http://www.w3.org/2000/svg" xmlns:xlink="http://www.w3.org/1999/xlink" x="0px" y="0px"
	 viewBox="0 0 300 40" style="enable-background:new 0 0 300 40;" xml:space="preserve">
<style type="text/css">
	.st0{fill:#FFFFFF;}
</style>
<g>
	<g>
		<path class="st0" d="M153.74,10.97l-1.18-0.67c0.01,0,5.48-3.62,12.08,1c0,0-1.15,6.19,3.76,9.21l-10.77,5.38
			C157.63,25.88,161.87,16.43,153.74,10.97"/>
		<path class="st0" d="M153.5,11.4c0,0,7.62,4.79,3.38,14.55c0,0-5.48,4.51-13.94,0.28c0,0,1.64-1.89,1.96-2.31
			c0,0-5.85-6.25-0.37-13.48C144.53,10.45,150.07,13.12,153.5,11.4"/>
		<path class="st0" d="M158.18,26.24l6.33-3.09c0,0,0.01,2.07-0.44,2.67c-0.45,0.58-1.54,0.32-1.54,0.32l-1.79,4.42
			c0,0,4.04,0.55,4.19,3.2l-4.51,0.03l0.2-1.3l-0.86,0.01l-0.32,1.26l-3.77,0.01L158.18,26.24z"/>
		<path class="st0" d="M133.15,17.15L133.15,17.15c0.04,0.03,3.36,1.98,8.63,1.65c0,0,0.39,2.69,2.3,5.12c0,0-2.17,3.58-7,4.77
			c0,0-1.98-5.48-5.62-7.68C131.46,21.01,133.11,19.29,133.15,17.15"/>
		<path class="st0" d="M143.73,10.59c0,0-2.81,3.38-2.03,7.53c0,0-4.64,0.65-9.16-1.91c0,0-0.31,0.53-0.77,1.08
			c-0.39,0.46-1.51,1.98-3.96,1.89l6.03-6.78C133.85,12.4,137.38,7.74,143.73,10.59"/>
		<path class="st0" d="M131.9,22.12c0,0,3.28,2.53,4.41,6.31l-4.08,2.2c0,0,2.37,1.57,2.53,3.21l-2.95,0.01l0.69-1.28l-1.06,0
			l-0.72,1.28l-3.78,0.02l2.53-3.4l0.09-1.65l-0.86-0.65L131.9,22.12z"/>
		<path class="st0" d="M179.19,10.87c-1.49,4.68-3.03,3.86-3.03,3.86l0.07-1.8c-5.24,3.1-8.12-2.71-8.12-2.71
			c2.23-0.08,3.01-1.18,3.01-1.18l-2.4-0.34l0.28-0.9l-3.01,0.73c-2.08,4.79,0.06,8.55,0.06,8.55c4.4,7.14,11.52,1.56,11.52,1.56
			l-2.15-0.73l1.61,0c1.14-0.01,1.41-0.42,1.41-0.42C180.8,14.63,179.19,10.87,179.19,10.87z M170.96,14.09l1.82,1.34
			C172.43,16.19,170,15.58,170.96,14.09z"/>
	</g>
	<path class="st0" d="M276.12,31.99c1.28,1.5,3.05,2.25,5.31,2.25c2.01,0,3.63-0.67,4.89-2.01c1.25-1.34,1.88-3.02,1.88-5.04
		c0-1.81-0.48-3.47-1.43-4.98c-0.63-1.01-1.78-2.34-3.47-3.96c-0.1-0.1-0.19-0.19-0.25-0.26c-2.74-2.64-4.11-4.79-4.11-6.43
		c0-1.75,0.77-2.62,2.32-2.62c1.45,0,2.24,1.18,2.39,3.54l4.26-0.61c-0.16-2.02-0.77-3.66-1.84-4.93c-1.17-1.38-2.74-2.07-4.69-2.07
		c-1.94,0-3.55,0.69-4.84,2.07c-1.28,1.38-1.92,3.05-1.92,5.01c0,1.73,0.57,3.44,1.72,5.1c0.65,0.94,1.87,2.31,3.67,4.11l0.41,0.41
		c2.37,2.33,3.55,4.23,3.55,5.7c0,0.81-0.25,1.46-0.73,1.97c-0.49,0.51-1.14,0.76-1.95,0.76c-1.77,0-2.74-1.4-2.89-4.21l-4.17,0.63
		C274.33,28.75,274.96,30.61,276.12,31.99 M256.6,26.34c0,5.23,2.23,7.84,6.68,7.84c2.27,0,3.98-0.73,5.14-2.2
		c1.06-1.34,1.58-3.18,1.58-5.52V12c0-2.15-0.54-3.87-1.64-5.17c-1.17-1.37-2.81-2.07-4.92-2.07c-2.18,0-3.87,0.65-5.08,1.95
		c-1.17,1.25-1.76,2.97-1.76,5.17V26.34z M263.28,30.29c-1.51,0-2.26-0.98-2.26-2.94V11.63c0-1.95,0.75-2.92,2.26-2.92
		c1.5,0,2.26,0.98,2.26,2.92v15.72C265.54,29.31,264.79,30.29,263.28,30.29 M241.26,33.58V18.83c0-0.55-0.16-1.85-0.48-3.9
		c0.17,0.73,0.44,1.65,0.82,2.77l0.08,0.23c0.01,0.03,0.02,0.05,0.02,0.06l5.31,15.6h4.08V5.36h-4.09v16.06
		c0,0.68,0.17,1.94,0.5,3.81c-0.34-1.34-0.62-2.34-0.84-3l-5.53-16.87h-3.89v28.22H241.26z M231.25,5.36h-4.43v28.22h4.43V5.36z
		 M207.71,33.58h4.31V20.95h4.37v12.64h4.34V5.36h-4.34v11.5h-4.37V5.36h-4.31V33.58z M195.82,21.72l2.7,11.87h4.5l-3.2-13.12
		c1.83-1.27,2.75-3.59,2.75-6.95c0-2.67-0.46-4.64-1.37-5.91c-1.08-1.5-2.89-2.25-5.43-2.25h-6.38v28.22h4.34V21.72H195.82z
		 M195.3,9.45c1.19,0,1.98,0.37,2.39,1.13c0.3,0.54,0.45,1.47,0.45,2.79c0,1.38-0.12,2.34-0.35,2.9c-0.39,0.9-1.17,1.36-2.33,1.36
		h-1.72V9.45H195.3z M116.42,33.58v-4.23h-6.99v-8.43h5.05v-4.09h-5.05V9.45h6.99V5.36h-11.33v28.22H116.42z M91.6,33.58V22.11h2.99
		c2.08,0,3.63-0.96,4.65-2.89c0.79-1.52,1.19-3.43,1.19-5.7c0-2.67-0.46-4.64-1.37-5.91c-1.08-1.5-2.89-2.25-5.42-2.25h-6.38v28.22
		H91.6z M91.6,9.45h1.57c1.21,0,2.02,0.42,2.42,1.25c0.28,0.55,0.41,1.52,0.41,2.91c0,1.46-0.11,2.47-0.33,3.03
		c-0.38,0.96-1.16,1.45-2.35,1.45H91.6V9.45z M68.13,26.33c0,5.23,2.24,7.84,6.72,7.84c2.28,0,3.99-0.73,5.14-2.2
		c1.03-1.34,1.54-3.18,1.54-5.52V5.36H77.1V27.2c0,1.8-0.74,2.69-2.21,2.69c-1.54,0-2.31-0.9-2.31-2.69V5.36h-4.46V26.33z
		 M49.47,26.34c0,5.23,2.23,7.84,6.68,7.84c2.27,0,3.98-0.73,5.14-2.2c1.05-1.34,1.58-3.18,1.58-5.52V12c0-2.15-0.55-3.87-1.64-5.17
		c-1.17-1.37-2.81-2.07-4.92-2.07c-2.18,0-3.87,0.65-5.08,1.95c-1.17,1.25-1.76,2.97-1.76,5.17V26.34z M56.16,30.29
		c-1.5,0-2.26-0.98-2.26-2.94V11.63c0-1.95,0.75-2.92,2.26-2.92c1.51,0,2.26,0.98,2.26,2.92v15.72
		C58.41,29.31,57.66,30.29,56.16,30.29 M38.12,21.72l2.69,11.87h4.5l-3.2-13.12c1.83-1.27,2.75-3.59,2.75-6.95
		c0-2.67-0.45-4.64-1.37-5.91c-1.08-1.5-2.89-2.25-5.43-2.25h-6.38v28.22h4.34V21.72H38.12z M37.59,9.45c1.19,0,1.98,0.37,2.39,1.13
		c0.3,0.54,0.45,1.47,0.45,2.79c0,1.38-0.12,2.34-0.35,2.9c-0.39,0.9-1.17,1.36-2.33,1.36h-1.72V9.45H37.59z M18.99,34.18
		c1.86,0,3.26-0.85,4.2-2.54l2.93,1.95V19.33h-6.84v3.6h2.64v4.41c0,1.96-0.75,2.94-2.24,2.94c-1.5,0-2.24-0.98-2.24-2.94V11.63
		c0-1.95,0.75-2.92,2.24-2.92c1.49,0,2.24,0.97,2.24,2.91v2.97h4.2v-2.6c0-4.82-2.1-7.23-6.29-7.23c-2.17,0-3.86,0.65-5.07,1.95
		C13.59,7.96,13,9.69,13,11.88v14.46C13,31.57,15,34.18,18.99,34.18"/>
</g>
</svg>
